<svg id="Layer_2" data-name="Layer 2" xmlns="http://www.w3.org/2000/svg" xmlns:xlink="http://www.w3.org/1999/xlink" viewbox="0 0 375.92 376.36"><defs><clippath id="clip-path"><path class="cls-1" d="M.07,182.81C2.88,82.87,86.47.24,187.48,0,291.31-.25,377.15,86.65,375.9,190.47,374.69,291.71,291.07,375,190.54,376.34,84.87,377.76-2.89,288.15.07,182.81Z" style="fill: none;"></path></clippath></defs><title>Skill edge logo</title><g class="cls-2" style="clip-path: url(#clip-path);"></g><g id="Varient"><path class="cls-3" d="M.07,182.81C2.88,82.87,86.47.24,187.48,0,291.31-.25,377.15,86.65,375.9,190.47,374.69,291.71,291.07,375,190.54,376.34,84.87,377.76-2.89,288.15.07,182.81Z" style="fill: #fff;"></path><path d="M21.78,160.09c2.2-13,11.85-60.34,55.14-97.28,41.46-35.37,87.29-38.6,100.86-39.06V144.51H148.91V56.94a136.87,136.87,0,0,0-93.43,88.34l122,71.23L178,350a165,165,0,0,1-93.7-32.17c-43.07-32-56.62-75.21-60.26-88.59l31.92.51a134.82,134.82,0,0,0,42.38,61.79,133.26,133.26,0,0,0,50.55,25.53l-.51-84.77Z"></path><path d="M197.43,24a163.43,163.43,0,0,1,143.92,96.72l-32.77-.25a134.45,134.45,0,0,0-82.8-63l1,158.55,123.32-70.21q2.16,14.94,4.34,29.87L225.78,250.72l.51,66a125.17,125.17,0,0,0,82.55-63.15l32.51.17a161.11,161.11,0,0,1-143.66,96.85Q197.56,187.32,197.43,24Z"></path></g></svg>